<svg xmlns="http://www.w3.org/2000/svg" width="163" height="24" viewBox="0 0 163 24">
    <g fill="none" fill-rule="evenodd">
        <path fill="#7ABA05" d="M31 22.993c.134-1.005.266-1.96.387-2.916.105-.83.2-1.66.293-2.49.09-.814.181-1.63.26-2.446a40.32 40.32 0 0 0 .142-1.858c.033-.676.072-1.353.044-2.028-.042-1.033-.138-2.065-.212-3.098a6.678 6.678 0 0 0-.045-.435c-.018-.134.059-.15.162-.16.416-.04.83-.09 1.246-.128.764-.07 1.53-.124 2.292-.205.19-.02.227.05.232.205.03.89.061 1.78.1 2.67.004.093.06.184.094.275.083-.06.198-.103.245-.186.714-1.258 1.66-2.26 3.033-2.774 1.252-.468 2.539-.569 3.824-.175 1.243.38 1.882 1.31 2.117 2.56.026.135.026.275.052.41.01.058.06.157.087.155.072-.003.163-.034.208-.087.088-.104.148-.232.222-.348.792-1.229 1.819-2.166 3.229-2.612a6.488 6.488 0 0 1 3.441-.141c1.147.259 1.869.971 2.218 2.09.205.656.305 1.329.322 2.015.032 1.222-.053 2.44-.173 3.655-.114 1.152-.233 2.304-.328 3.457a297.865 297.865 0 0 0-.311 4.223c-.012.171-.077.226-.235.231-.851.03-1.703.063-2.554.096-.334.014-.669.02-1.002.05-.21.018-.27-.064-.25-.262.072-.67.125-1.344.206-2.013.12-.989.263-1.974.389-2.962.108-.852.22-1.703.305-2.556.105-1.062.233-2.125.098-3.192a5.107 5.107 0 0 0-.241-1.072c-.284-.794-.933-1.02-1.654-.98-1.064.06-1.794.692-2.414 1.487-.842 1.08-1.32 2.331-1.557 3.668-.159.896-.238 1.807-.33 2.714a126.092 126.092 0 0 0-.262 3.024c-.046.59-.068 1.18-.092 1.771-.007.156-.067.22-.218.227-1.178.045-2.356.095-3.534.14-.301.012-.319.002-.287-.305.09-.861.188-1.722.295-2.581.122-.965.262-1.928.386-2.893.107-.829.215-1.657.3-2.487.118-1.147.21-2.297-.066-3.435-.24-.988-.882-1.418-1.882-1.322-.959.092-1.62.654-2.186 1.365-.898 1.126-1.41 2.435-1.675 3.84-.155.819-.24 1.652-.328 2.482-.118 1.113-.213 2.229-.31 3.344-.045.504-.074 1.01-.104 1.515-.017.296-.049.326-.334.338-1.125.044-2.25.093-3.374.14-.082.003-.163 0-.271 0M67.948 13.96c-.019-.309-.03-.619-.06-.926-.064-.664-.193-1.313-.519-1.912-.56-1.033-1.619-1.36-2.657-1.162-.785.15-1.371.612-1.868 1.183-1.083 1.243-1.83 2.66-2.125 4.257-.227 1.22-.318 2.464-.495 3.694-.043.296.076.411.32.525a5.525 5.525 0 0 0 3.078.503c1.17-.144 2.13-.633 2.835-1.553 1.048-1.369 1.473-2.927 1.491-4.61M56 22.714c.067-.501.132-.97.193-1.438a321.195 321.195 0 0 0 .58-4.663c.087-.74.166-1.482.252-2.223.086-.747.179-1.495.264-2.243.087-.763.171-1.527.252-2.29.077-.727.155-1.454.22-2.181.06-.691.123-1.383.152-2.075.074-1.72.13-3.438.19-5.158.003-.117.033-.177.17-.184.758-.04 1.515-.088 2.273-.134.616-.038 1.233-.072 1.85-.122.155-.013.203.033.189.169-.053.501-.095 1.005-.162 1.505-.126.932-.267 1.863-.402 2.795-.199 1.364-.396 2.728-.598 4.09-.084.574-.18 1.145-.272 1.722.187.094.289.026.38-.131.58-1.009 1.338-1.859 2.4-2.425.744-.397 1.545-.597 2.39-.675.782-.07 1.547-.025 2.298.192 1.158.336 1.941 1.101 2.518 2.087.513.876.74 1.832.819 2.83.125 1.578-.01 3.132-.48 4.651-.55 1.773-1.48 3.324-2.941 4.55-1.089.915-2.36 1.437-3.796 1.579-.987.098-1.968.095-2.932-.173-.542-.15-1.034-.386-1.457-.753-.205-.178-.38-.155-.47.095-.137.389-.394.474-.798.478-.938.009-1.876.08-2.814.124-.083.004-.167 0-.268 0M14.098 6.041c-.576-.17-1.122-.366-1.683-.488-1.523-.332-3.057-.432-4.592-.075-.526.123-1.01.344-1.391.75-.699.744-.719 1.98-.04 2.741.506.568 1.155.931 1.817 1.264.654.33 1.334.606 1.99.933 1.11.552 2.124 1.243 2.928 2.213.841 1.013 1.307 2.175 1.353 3.505.038 1.09-.073 2.156-.497 3.17-.645 1.545-1.822 2.513-3.326 3.12a10.242 10.242 0 0 1-3.212.732c-1.07.066-2.147.118-3.217.083A15.66 15.66 0 0 1 0 23.25c.013-.065.019-.124.036-.18.327-1.042.659-2.082.98-3.127.059-.191.135-.233.325-.162 1.017.38 2.061.674 3.14.76.825.067 1.658.034 2.487.027a5.689 5.689 0 0 0 1.946-.34c.795-.296 1.398-.78 1.57-1.676.205-1.06-.218-1.87-1.01-2.513-.898-.73-1.93-1.23-2.967-1.718-1.378-.65-2.626-1.478-3.524-2.755-.808-1.148-1.092-2.434-.979-3.831.059-.72.18-1.42.45-2.09.43-1.07 1.21-1.812 2.186-2.372a8.807 8.807 0 0 1 3.517-1.14 22.203 22.203 0 0 1 2.573-.132c1.362.02 2.718.138 4.049.466.2.05.257.116.2.326-.284 1.03-.554 2.065-.829 3.097-.013.052-.035.101-.052.15M20.11 16.828c-.004.9.042 1.544.285 2.16.242.612.68 1.016 1.376 1.108.573.075 1.122-.043 1.567-.393.37-.29.738-.612 1.01-.985 1.286-1.767 1.991-3.746 2.233-5.878.093-.82.157-1.644.253-2.464.023-.196-.045-.246-.223-.229-.55.054-1.107.075-1.65.17-1.788.311-3.13 1.212-3.957 2.78-.662 1.255-.871 2.597-.893 3.73M31 7c-.083.557-.164 1.092-.241 1.628-.122.84-.245 1.68-.36 2.52-.11.796-.215 1.593-.313 2.39-.074.6-.147 1.199-.193 1.8-.078 1.002-.156 2.005-.192 3.01-.046 1.298.082 2.59.254 3.877.015.114-.002.163-.13.177-1.125.118-2.25.24-3.374.36l-.023.002c-.498.05-.494.05-.502-.427-.014-.753-.03-1.506-.057-2.26-.003-.085-.076-.168-.116-.253-.091.054-.22.087-.268.165-.457.732-1.004 1.388-1.718 1.907-1.031.75-2.206 1.074-3.497 1.103-1.984.043-3.072-.925-3.692-2.34-.374-.856-.523-1.757-.566-2.678-.127-2.672.798-4.99 2.587-7.018 1.076-1.22 2.446-2.028 4.016-2.543a13.593 13.593 0 0 1 3.225-.632c.405-.03.81-.05 1.214-.09.1-.01.208-.064.289-.127.295-.229.606-.389 1.006-.406.873-.038 1.744-.107 2.651-.165M77.118 17.061c0 .18-.01.36.002.537.04.56.11 1.113.384 1.621.366.681 1.12 1.015 1.91.865.629-.119 1.116-.45 1.536-.888.747-.778 1.209-1.716 1.648-2.667.494-1.07.79-2.195.937-3.353.119-.937.195-1.879.297-2.818.019-.175-.053-.23-.223-.212-.551.056-1.109.075-1.652.17-1.721.303-3.045 1.148-3.88 2.647-.715 1.285-.949 2.667-.96 4.098m9.84 5.319c-.616.067-1.212.131-1.808.197-.62.069-1.24.134-1.86.211-.312.04-.347.017-.354-.291-.018-.813-.036-1.625-.064-2.438-.003-.08-.075-.158-.114-.236-.092.052-.22.084-.269.16-.557.892-1.241 1.67-2.182 2.212-1.295.745-2.699.966-4.175.692-1.016-.188-1.736-.786-2.242-1.63-.502-.836-.739-1.747-.832-2.7-.146-1.472-.025-2.92.526-4.31.836-2.108 2.144-3.87 4.22-5.04 1.199-.676 2.505-1.08 3.876-1.275.787-.112 1.584-.15 2.375-.235a.679.679 0 0 0 .327-.151c.283-.227.59-.363.97-.38.873-.041 1.744-.108 2.649-.166l-.133.944c-.153 1.053-.312 2.105-.458 3.159-.13.936-.257 1.872-.362 2.811-.1.903-.184 1.807-.245 2.713-.054.795-.114 1.595-.087 2.39.038 1.084.157 2.166.24 3.25.003.029.001.058.001.113"/>
        <path fill="#2D721C" d="M128.658 13.276c-.689-3.79-3.874-5.446-6.855-5.168-1.526.143-2.832.799-3.877 1.98-.797.903-1.239 2.003-1.568 3.188h12.3zM131 15.16h-14.54c-.326 0-.327 0-.308.328.128 2.17.925 3.983 2.614 5.303 1.259.983 2.69 1.305 4.235 1.168a7.204 7.204 0 0 0 2.227-.588c1.194-.515 2.108-1.377 2.822-2.489.2-.31.396-.624.609-.96l1.745.96c-.956 1.989-2.31 3.518-4.264 4.406-1.412.642-2.894.788-4.411.68-1.168-.084-2.29-.356-3.327-.94-1.902-1.073-3.13-2.762-3.87-4.845-1.408-3.974.061-8.619 3.414-10.886 1.568-1.06 3.308-1.389 5.143-1.276 1.261.078 2.47.38 3.569 1.05 2.314 1.412 3.713 3.506 4.156 6.28.093.584.123 1.178.186 1.809zM162.982 23h-2.148c-.006-.118-.017-.228-.018-.338-.007-3.005-.005-6.01-.026-9.014-.006-.939-.032-1.882-.33-2.791-.498-1.526-1.493-2.547-3.171-2.824-2.22-.367-4.045.35-5.512 1.964-.952 1.048-1.4 2.295-1.503 3.674-.223 2.993-.088 5.99-.126 8.987v.334H148V0h2.153v9.334l.057.014.25-.293c1.09-1.278 2.377-2.3 4.053-2.76 2.045-.562 4.012-.42 5.794.803 1.363.936 2.151 2.24 2.394 3.823.155 1.01.265 2.034.278 3.053.037 2.936.014 5.872.014 8.809 0 .066-.006.133-.01.217M145 8.302l-1.49 1.358c-.155-.131-.357-.314-.57-.484-.74-.591-1.55-1.024-2.51-1.148-1.268-.163-2.578.65-2.894 1.823-.177.655-.034 1.255.32 1.817.275.44.646.793 1.08 1.064.672.418 1.356.817 2.048 1.2.88.486 1.747.988 2.497 1.666 1.154 1.043 1.59 2.35 1.477 3.886-.155 2.084-1.851 4.133-4.267 4.45-2.304.302-4.264-.425-5.836-2.157a.81.81 0 0 0-.38-.229c-.825-.205-1.407-.712-1.795-1.443-.706-1.33-.854-2.729-.482-4.189.266-1.046.679-2.03 1.184-2.98.014-.027.037-.049.067-.088.098.259.167.517.29.747.23.434.472.865.746 1.273.27.402.645.683 1.09.901 1.228.602 2.03 1.547 2.236 2.937.086.586-.074 1.548-.36 2.049-.84-.836-1.58-1.741-2.181-2.756-.599-1.01-1.02-2.092-1.337-3.23 0 .13-.006.261.001.392.008.132.022.266.044.397.35 2.178 1.379 3.976 3.076 5.382.691.572 1.49.918 2.398.983 1.866.135 3.203-1.177 3.4-2.364.165-.999-.11-1.858-.898-2.503a11.04 11.04 0 0 0-1.4-.944c-.744-.436-1.528-.804-2.256-1.261-.548-.344-1.09-.73-1.54-1.188-1.287-1.307-1.583-2.902-1.04-4.606.534-1.674 1.77-2.63 3.487-2.963 1.171-.226 2.291-.036 3.363.474.894.425 1.669 1.017 2.432 1.734M91 1h10.978c.006.056.015.101.015.146l.001 2.063H93.187v7.253h.283c2.75 0 5.5.003 8.25-.006.231-.001.285.067.28.3-.016.627-.006 1.257-.006 1.913-.106.005-.199.013-.292.013-2.72 0-5.44 0-8.16.002-.398 0-.374-.07-.374.38V24H91V1zM114.764 6.24c-.122 0-.244-.002-.366 0-.13.004-.262.004-.392.019-2.47.274-4.518 1.37-6.23 3.113-.778.791-1.108 1.794-1.3 2.837-.258 1.393-.272 2.808-.282 4.219-.014 2.095-.005 4.19-.006 6.285V23H104V6.415h2.182v2.343l.048.022c.145-.187.277-.386.438-.559.178-.19.242-.39.233-.654-.045-1.273.544-2.212 1.667-2.796 1.3-.675 2.68-.936 4.154-.665 1.518.279 2.902.876 4.278 1.632-.094.03-.147.047-.2.062a6.93 6.93 0 0 0-2.313 1.155c-.39.296-.682.66-.908 1.1-.638 1.238-1.608 2.1-3.017 2.402-.945.203-1.85.032-2.762-.363 1.989-1.91 4.26-3.25 6.964-3.854z"/>
    </g>
</svg>
